<mxfile host="Electron" modified="2024-01-25T22:57:31.722Z" agent="Mozilla/5.0 (Windows NT 10.0; Win64; x64) AppleWebKit/537.36 (KHTML, like Gecko) draw.io/22.1.21 Chrome/120.0.6099.109 Electron/28.1.0 Safari/537.36" etag="HLuDEscARbTyy57ux0-3" version="22.1.21" type="device">
  <diagram name="Page-1" id="v827QuPeME6VbK4RMULI">
    <mxGraphModel dx="1098" dy="798" grid="0" gridSize="10" guides="1" tooltips="1" connect="1" arrows="1" fold="1" page="1" pageScale="1" pageWidth="1100" pageHeight="850" math="0" shadow="0">
      <root>
        <mxCell id="0" />
        <mxCell id="1" parent="0" />
        <mxCell id="O-a4cNCli8wWWlPui-SY-3" value="EC2 Instance" style="sketch=0;points=[[0,0,0],[0.25,0,0],[0.5,0,0],[0.75,0,0],[1,0,0],[0,1,0],[0.25,1,0],[0.5,1,0],[0.75,1,0],[1,1,0],[0,0.25,0],[0,0.5,0],[0,0.75,0],[1,0.25,0],[1,0.5,0],[1,0.75,0]];outlineConnect=0;fontColor=#232F3E;fillColor=#ED7100;strokeColor=#ffffff;dashed=0;verticalLabelPosition=bottom;verticalAlign=top;align=center;html=1;fontSize=12;fontStyle=0;aspect=fixed;shape=mxgraph.aws4.resourceIcon;resIcon=mxgraph.aws4.ec2;" vertex="1" parent="1">
          <mxGeometry x="60" y="490" width="78" height="78" as="geometry" />
        </mxCell>
        <mxCell id="O-a4cNCli8wWWlPui-SY-5" value="EventBridge&lt;br&gt;event bus" style="sketch=0;points=[[0,0,0],[0.25,0,0],[0.5,0,0],[0.75,0,0],[1,0,0],[0,1,0],[0.25,1,0],[0.5,1,0],[0.75,1,0],[1,1,0],[0,0.25,0],[0,0.5,0],[0,0.75,0],[1,0.25,0],[1,0.5,0],[1,0.75,0]];outlineConnect=0;fontColor=#232F3E;fillColor=#E7157B;strokeColor=#ffffff;dashed=0;verticalLabelPosition=bottom;verticalAlign=top;align=center;html=1;fontSize=12;fontStyle=0;aspect=fixed;shape=mxgraph.aws4.resourceIcon;resIcon=mxgraph.aws4.eventbridge;" vertex="1" parent="1">
          <mxGeometry x="717" y="490" width="78" height="78" as="geometry" />
        </mxCell>
        <mxCell id="O-a4cNCli8wWWlPui-SY-8" value="TagEc2Instance&lt;br&gt;Lambda Function" style="outlineConnect=0;dashed=0;verticalLabelPosition=bottom;verticalAlign=top;align=center;html=1;shape=mxgraph.aws3.lambda_function;fillColor=#F58534;gradientColor=none;" vertex="1" parent="1">
          <mxGeometry x="940" y="493" width="69" height="72" as="geometry" />
        </mxCell>
        <mxCell id="O-a4cNCli8wWWlPui-SY-14" style="edgeStyle=orthogonalEdgeStyle;rounded=0;orthogonalLoop=1;jettySize=auto;html=1;exitX=0.5;exitY=0;exitDx=0;exitDy=0;exitPerimeter=0;entryX=0.5;entryY=0;entryDx=0;entryDy=0;entryPerimeter=0;" edge="1" parent="1" source="O-a4cNCli8wWWlPui-SY-8" target="O-a4cNCli8wWWlPui-SY-3">
          <mxGeometry relative="1" as="geometry">
            <Array as="points">
              <mxPoint x="975" y="390" />
              <mxPoint x="99" y="390" />
            </Array>
          </mxGeometry>
        </mxCell>
        <mxCell id="O-a4cNCli8wWWlPui-SY-20" value="" style="sketch=0;outlineConnect=0;fontColor=#232F3E;gradientColor=none;fillColor=#E7157B;strokeColor=none;dashed=0;verticalLabelPosition=bottom;verticalAlign=top;align=center;html=1;fontSize=12;fontStyle=0;aspect=fixed;pointerEvents=1;shape=mxgraph.aws4.rule_3;" vertex="1" parent="1">
          <mxGeometry x="850" y="490" width="38" height="33.13" as="geometry" />
        </mxCell>
        <mxCell id="O-a4cNCli8wWWlPui-SY-21" style="edgeStyle=orthogonalEdgeStyle;rounded=0;orthogonalLoop=1;jettySize=auto;html=1;exitX=1;exitY=0.5;exitDx=0;exitDy=0;exitPerimeter=0;entryX=0;entryY=0.5;entryDx=0;entryDy=0;entryPerimeter=0;" edge="1" parent="1" source="O-a4cNCli8wWWlPui-SY-5" target="O-a4cNCli8wWWlPui-SY-8">
          <mxGeometry relative="1" as="geometry" />
        </mxCell>
        <mxCell id="O-a4cNCli8wWWlPui-SY-22" value="" style="sketch=0;outlineConnect=0;fontColor=#232F3E;gradientColor=none;fillColor=#E7157B;strokeColor=none;dashed=0;verticalLabelPosition=bottom;verticalAlign=top;align=center;html=1;fontSize=12;fontStyle=0;aspect=fixed;pointerEvents=1;shape=mxgraph.aws4.event;" vertex="1" parent="1">
          <mxGeometry x="630.5" y="490" width="39" height="39" as="geometry" />
        </mxCell>
        <mxCell id="O-a4cNCli8wWWlPui-SY-31" style="edgeStyle=orthogonalEdgeStyle;rounded=0;orthogonalLoop=1;jettySize=auto;html=1;" edge="1" parent="1" source="O-a4cNCli8wWWlPui-SY-23" target="O-a4cNCli8wWWlPui-SY-5">
          <mxGeometry relative="1" as="geometry" />
        </mxCell>
        <mxCell id="O-a4cNCli8wWWlPui-SY-23" value="S3 Bucket" style="sketch=0;outlineConnect=0;fontColor=#232F3E;gradientColor=none;fillColor=#7AA116;strokeColor=none;dashed=0;verticalLabelPosition=bottom;verticalAlign=top;align=center;html=1;fontSize=12;fontStyle=0;aspect=fixed;pointerEvents=1;shape=mxgraph.aws4.bucket;" vertex="1" parent="1">
          <mxGeometry x="499" y="490" width="75" height="78" as="geometry" />
        </mxCell>
        <mxCell id="O-a4cNCli8wWWlPui-SY-26" value="&lt;font color=&quot;#ffffff&quot;&gt;1&lt;/font&gt;" style="ellipse;whiteSpace=wrap;html=1;aspect=fixed;fillColor=#FF3333;" vertex="1" parent="1">
          <mxGeometry x="200" y="540" width="20" height="20" as="geometry" />
        </mxCell>
        <mxCell id="O-a4cNCli8wWWlPui-SY-27" value="&lt;font color=&quot;#ffffff&quot;&gt;2&lt;/font&gt;" style="ellipse;whiteSpace=wrap;html=1;aspect=fixed;fillColor=#FF3333;" vertex="1" parent="1">
          <mxGeometry x="420" y="540" width="20" height="20" as="geometry" />
        </mxCell>
        <mxCell id="O-a4cNCli8wWWlPui-SY-30" style="edgeStyle=orthogonalEdgeStyle;rounded=0;orthogonalLoop=1;jettySize=auto;html=1;exitX=1;exitY=0.5;exitDx=0;exitDy=0;exitPerimeter=0;" edge="1" parent="1" source="O-a4cNCli8wWWlPui-SY-28" target="O-a4cNCli8wWWlPui-SY-23">
          <mxGeometry relative="1" as="geometry" />
        </mxCell>
        <mxCell id="O-a4cNCli8wWWlPui-SY-28" value="CloudTrail" style="sketch=0;points=[[0,0,0],[0.25,0,0],[0.5,0,0],[0.75,0,0],[1,0,0],[0,1,0],[0.25,1,0],[0.5,1,0],[0.75,1,0],[1,1,0],[0,0.25,0],[0,0.5,0],[0,0.75,0],[1,0.25,0],[1,0.5,0],[1,0.75,0]];points=[[0,0,0],[0.25,0,0],[0.5,0,0],[0.75,0,0],[1,0,0],[0,1,0],[0.25,1,0],[0.5,1,0],[0.75,1,0],[1,1,0],[0,0.25,0],[0,0.5,0],[0,0.75,0],[1,0.25,0],[1,0.5,0],[1,0.75,0]];outlineConnect=0;fontColor=#232F3E;fillColor=#E7157B;strokeColor=#ffffff;dashed=0;verticalLabelPosition=bottom;verticalAlign=top;align=center;html=1;fontSize=12;fontStyle=0;aspect=fixed;shape=mxgraph.aws4.resourceIcon;resIcon=mxgraph.aws4.cloudtrail;" vertex="1" parent="1">
          <mxGeometry x="279" y="490" width="78" height="78" as="geometry" />
        </mxCell>
        <mxCell id="O-a4cNCli8wWWlPui-SY-29" style="edgeStyle=orthogonalEdgeStyle;rounded=0;orthogonalLoop=1;jettySize=auto;html=1;exitX=1;exitY=0.5;exitDx=0;exitDy=0;exitPerimeter=0;entryX=0;entryY=0.5;entryDx=0;entryDy=0;entryPerimeter=0;" edge="1" parent="1" source="O-a4cNCli8wWWlPui-SY-3" target="O-a4cNCli8wWWlPui-SY-28">
          <mxGeometry relative="1" as="geometry" />
        </mxCell>
        <mxCell id="O-a4cNCli8wWWlPui-SY-32" value="&lt;font color=&quot;#ffffff&quot;&gt;3&lt;/font&gt;" style="ellipse;whiteSpace=wrap;html=1;aspect=fixed;fillColor=#FF3333;" vertex="1" parent="1">
          <mxGeometry x="640" y="540" width="20" height="20" as="geometry" />
        </mxCell>
        <mxCell id="O-a4cNCli8wWWlPui-SY-33" value="&lt;font color=&quot;#ffffff&quot;&gt;4&lt;/font&gt;" style="ellipse;whiteSpace=wrap;html=1;aspect=fixed;fillColor=#FF3333;" vertex="1" parent="1">
          <mxGeometry x="859" y="540" width="20" height="20" as="geometry" />
        </mxCell>
        <mxCell id="O-a4cNCli8wWWlPui-SY-34" value="&lt;font color=&quot;#ffffff&quot;&gt;5&lt;/font&gt;" style="ellipse;whiteSpace=wrap;html=1;aspect=fixed;fillColor=#FF3333;" vertex="1" parent="1">
          <mxGeometry x="526.5" y="360" width="20" height="20" as="geometry" />
        </mxCell>
        <mxCell id="O-a4cNCli8wWWlPui-SY-35" value="" style="points=[[0,0],[0.25,0],[0.5,0],[0.75,0],[1,0],[1,0.25],[1,0.5],[1,0.75],[1,1],[0.75,1],[0.5,1],[0.25,1],[0,1],[0,0.75],[0,0.5],[0,0.25]];outlineConnect=0;gradientColor=none;html=1;whiteSpace=wrap;fontSize=12;fontStyle=0;container=1;pointerEvents=0;collapsible=0;recursiveResize=0;shape=mxgraph.aws4.group;grIcon=mxgraph.aws4.group_ec2_instance_contents;strokeColor=#D86613;fillColor=none;verticalAlign=top;align=left;spacingLeft=30;fontColor=#D86613;dashed=0;" vertex="1" parent="1">
          <mxGeometry x="15" y="458" width="176" height="165" as="geometry" />
        </mxCell>
      </root>
    </mxGraphModel>
  </diagram>
</mxfile>
